<mxfile host="app.diagrams.net" modified="2022-04-11T02:15:20.634Z" agent="5.0 (Windows NT 10.0; Win64; x64) AppleWebKit/537.36 (KHTML, like Gecko) Chrome/100.0.4896.75 Safari/537.36" etag="wInJ0K87vV6DMjHMh6n1" version="17.4.2" type="github">
  <diagram id="ZwDB1qM30BojTxI3Pe8L" name="GeneralSystem">
    <mxGraphModel dx="1038" dy="579" grid="1" gridSize="10" guides="1" tooltips="1" connect="1" arrows="1" fold="1" page="1" pageScale="1" pageWidth="827" pageHeight="1169" math="0" shadow="0">
      <root>
        <mxCell id="0" />
        <mxCell id="1" parent="0" />
        <mxCell id="rXuBKgF0fp0goKvtdP_8-1" value="" style="endArrow=none;dashed=1;html=1;rounded=0;entryX=0.5;entryY=1;entryDx=0;entryDy=0;startArrow=none;" edge="1" parent="1" target="rXuBKgF0fp0goKvtdP_8-56">
          <mxGeometry width="50" height="50" relative="1" as="geometry">
            <mxPoint x="1334" y="1040" as="sourcePoint" />
            <mxPoint x="1334.2900000000004" y="80" as="targetPoint" />
          </mxGeometry>
        </mxCell>
        <mxCell id="rXuBKgF0fp0goKvtdP_8-2" value="station : Station" style="rounded=0;whiteSpace=wrap;html=1;" vertex="1" parent="1">
          <mxGeometry x="202.5" y="40" width="210" height="40" as="geometry" />
        </mxCell>
        <mxCell id="rXuBKgF0fp0goKvtdP_8-3" value="baggingArea : BaggingAreaObserver" style="rounded=0;whiteSpace=wrap;html=1;" vertex="1" parent="1">
          <mxGeometry x="532.5" y="40" width="210" height="40" as="geometry" />
        </mxCell>
        <mxCell id="rXuBKgF0fp0goKvtdP_8-4" value="" style="endArrow=none;dashed=1;html=1;rounded=0;entryX=0.5;entryY=1;entryDx=0;entryDy=0;startArrow=none;" edge="1" parent="1" source="rXuBKgF0fp0goKvtdP_8-53" target="rXuBKgF0fp0goKvtdP_8-2">
          <mxGeometry width="50" height="50" relative="1" as="geometry">
            <mxPoint x="307.5" y="410" as="sourcePoint" />
            <mxPoint x="482.5" y="170" as="targetPoint" />
          </mxGeometry>
        </mxCell>
        <mxCell id="rXuBKgF0fp0goKvtdP_8-5" value="" style="endArrow=none;dashed=1;html=1;rounded=0;entryX=0.5;entryY=1;entryDx=0;entryDy=0;startArrow=none;" edge="1" parent="1" target="rXuBKgF0fp0goKvtdP_8-3">
          <mxGeometry width="50" height="50" relative="1" as="geometry">
            <mxPoint x="638" y="400" as="sourcePoint" />
            <mxPoint x="637" y="120" as="targetPoint" />
          </mxGeometry>
        </mxCell>
        <mxCell id="rXuBKgF0fp0goKvtdP_8-6" value="" style="rounded=0;whiteSpace=wrap;html=1;" vertex="1" parent="1">
          <mxGeometry x="302.5" y="113" width="10" height="40" as="geometry" />
        </mxCell>
        <mxCell id="rXuBKgF0fp0goKvtdP_8-7" value="" style="endArrow=classic;html=1;rounded=0;entryX=0;entryY=0;entryDx=0;entryDy=0;" edge="1" parent="1" target="rXuBKgF0fp0goKvtdP_8-6">
          <mxGeometry width="50" height="50" relative="1" as="geometry">
            <mxPoint x="132.5" y="113" as="sourcePoint" />
            <mxPoint x="482.5" y="183" as="targetPoint" />
          </mxGeometry>
        </mxCell>
        <mxCell id="rXuBKgF0fp0goKvtdP_8-8" value="idk if i should make the attendant &quot;creating&quot; the station too. but this is like when the customer presses the start button." style="shape=note;whiteSpace=wrap;html=1;backgroundOutline=1;darkOpacity=0.05;size=9;" vertex="1" parent="1">
          <mxGeometry x="350" y="97" width="247.5" height="72" as="geometry" />
        </mxCell>
        <mxCell id="rXuBKgF0fp0goKvtdP_8-9" value="" style="endArrow=none;dashed=1;html=1;rounded=0;entryX=0;entryY=0.5;entryDx=0;entryDy=0;entryPerimeter=0;" edge="1" parent="1" target="rXuBKgF0fp0goKvtdP_8-8">
          <mxGeometry width="50" height="50" relative="1" as="geometry">
            <mxPoint x="312.5" y="133" as="sourcePoint" />
            <mxPoint x="482.5" y="198" as="targetPoint" />
          </mxGeometry>
        </mxCell>
        <mxCell id="rXuBKgF0fp0goKvtdP_8-10" value="" style="endArrow=open;html=1;rounded=0;exitX=0;exitY=1;exitDx=0;exitDy=0;dashed=1;endFill=0;" edge="1" parent="1" source="rXuBKgF0fp0goKvtdP_8-6">
          <mxGeometry width="50" height="50" relative="1" as="geometry">
            <mxPoint x="432.5" y="233" as="sourcePoint" />
            <mxPoint x="132.5" y="153" as="targetPoint" />
          </mxGeometry>
        </mxCell>
        <mxCell id="rXuBKgF0fp0goKvtdP_8-11" value="" style="rounded=0;whiteSpace=wrap;html=1;" vertex="1" parent="1">
          <mxGeometry x="302.5" y="330" width="10" height="355" as="geometry" />
        </mxCell>
        <mxCell id="rXuBKgF0fp0goKvtdP_8-12" value="" style="endArrow=none;dashed=1;html=1;rounded=0;entryX=0.5;entryY=1;entryDx=0;entryDy=0;" edge="1" parent="1" target="rXuBKgF0fp0goKvtdP_8-11">
          <mxGeometry width="50" height="50" relative="1" as="geometry">
            <mxPoint x="307.5" y="1130" as="sourcePoint" />
            <mxPoint x="307.5" y="80" as="targetPoint" />
          </mxGeometry>
        </mxCell>
        <mxCell id="rXuBKgF0fp0goKvtdP_8-13" value="" style="endArrow=classic;html=1;rounded=0;" edge="1" parent="1">
          <mxGeometry width="50" height="50" relative="1" as="geometry">
            <mxPoint x="132.5" y="330" as="sourcePoint" />
            <mxPoint x="302.5" y="330" as="targetPoint" />
          </mxGeometry>
        </mxCell>
        <mxCell id="rXuBKgF0fp0goKvtdP_8-14" value="" style="endArrow=none;dashed=1;html=1;rounded=0;" edge="1" parent="1">
          <mxGeometry width="50" height="50" relative="1" as="geometry">
            <mxPoint x="637.5" y="1130" as="sourcePoint" />
            <mxPoint x="638" y="400" as="targetPoint" />
          </mxGeometry>
        </mxCell>
        <mxCell id="rXuBKgF0fp0goKvtdP_8-15" value="addItem(item)" style="text;html=1;align=center;verticalAlign=middle;resizable=0;points=[];autosize=1;strokeColor=none;fillColor=none;" vertex="1" parent="1">
          <mxGeometry x="167.5" y="310" width="90" height="20" as="geometry" />
        </mxCell>
        <mxCell id="rXuBKgF0fp0goKvtdP_8-16" value="" style="endArrow=classic;html=1;rounded=0;entryX=0;entryY=0;entryDx=0;entryDy=0;" edge="1" parent="1" target="rXuBKgF0fp0goKvtdP_8-57">
          <mxGeometry width="50" height="50" relative="1" as="geometry">
            <mxPoint x="312.5" y="345" as="sourcePoint" />
            <mxPoint x="632.5" y="350" as="targetPoint" />
          </mxGeometry>
        </mxCell>
        <mxCell id="rXuBKgF0fp0goKvtdP_8-17" value="" style="endArrow=open;html=1;rounded=0;exitX=0;exitY=1;exitDx=0;exitDy=0;dashed=1;endFill=0;entryX=1;entryY=0.192;entryDx=0;entryDy=0;entryPerimeter=0;" edge="1" parent="1" source="rXuBKgF0fp0goKvtdP_8-57" target="rXuBKgF0fp0goKvtdP_8-11">
          <mxGeometry width="50" height="50" relative="1" as="geometry">
            <mxPoint x="612.5" y="395" as="sourcePoint" />
            <mxPoint x="462.5" y="395" as="targetPoint" />
          </mxGeometry>
        </mxCell>
        <mxCell id="rXuBKgF0fp0goKvtdP_8-18" value="alt" style="shape=umlFrame;whiteSpace=wrap;html=1;width=50;height=20;" vertex="1" parent="1">
          <mxGeometry x="132.5" y="415" width="700" height="240" as="geometry" />
        </mxCell>
        <mxCell id="rXuBKgF0fp0goKvtdP_8-19" value="[make sure it was placed]" style="text;html=1;align=center;verticalAlign=middle;resizable=0;points=[];autosize=1;strokeColor=none;fillColor=none;" vertex="1" parent="1">
          <mxGeometry x="132.5" y="440" width="150" height="20" as="geometry" />
        </mxCell>
        <mxCell id="rXuBKgF0fp0goKvtdP_8-20" value="" style="endArrow=none;dashed=1;html=1;dashPattern=1 3;strokeWidth=2;rounded=0;" edge="1" parent="1" source="rXuBKgF0fp0goKvtdP_8-18">
          <mxGeometry width="50" height="50" relative="1" as="geometry">
            <mxPoint x="412.5" y="465" as="sourcePoint" />
            <mxPoint x="462.5" y="415" as="targetPoint" />
          </mxGeometry>
        </mxCell>
        <mxCell id="rXuBKgF0fp0goKvtdP_8-21" value="" style="endArrow=none;dashed=1;html=1;rounded=0;entryX=1.001;entryY=0.5;entryDx=0;entryDy=0;entryPerimeter=0;exitX=0.001;exitY=0.5;exitDx=0;exitDy=0;exitPerimeter=0;" edge="1" parent="1">
          <mxGeometry width="50" height="50" relative="1" as="geometry">
            <mxPoint x="133.19999999999982" y="520" as="sourcePoint" />
            <mxPoint x="833.1999999999998" y="520" as="targetPoint" />
          </mxGeometry>
        </mxCell>
        <mxCell id="rXuBKgF0fp0goKvtdP_8-22" value="" style="endArrow=classic;html=1;rounded=0;entryX=0;entryY=0;entryDx=0;entryDy=0;" edge="1" parent="1" target="rXuBKgF0fp0goKvtdP_8-26">
          <mxGeometry width="50" height="50" relative="1" as="geometry">
            <mxPoint x="312.5" y="438" as="sourcePoint" />
            <mxPoint x="977.5" y="455" as="targetPoint" />
          </mxGeometry>
        </mxCell>
        <mxCell id="rXuBKgF0fp0goKvtdP_8-23" value="scanner : ScannerObserver" style="rounded=0;whiteSpace=wrap;html=1;" vertex="1" parent="1">
          <mxGeometry x="872.5" y="40" width="210" height="40" as="geometry" />
        </mxCell>
        <mxCell id="rXuBKgF0fp0goKvtdP_8-24" value="" style="endArrow=none;dashed=1;html=1;rounded=0;entryX=0.5;entryY=1;entryDx=0;entryDy=0;startArrow=none;" edge="1" parent="1" source="rXuBKgF0fp0goKvtdP_8-57">
          <mxGeometry width="50" height="50" relative="1" as="geometry">
            <mxPoint x="977" y="430" as="sourcePoint" />
            <mxPoint x="977.0000000000005" y="80" as="targetPoint" />
          </mxGeometry>
        </mxCell>
        <mxCell id="rXuBKgF0fp0goKvtdP_8-25" value="" style="endArrow=open;html=1;rounded=0;dashed=1;endFill=0;entryX=1;entryY=0.222;entryDx=0;entryDy=0;entryPerimeter=0;exitX=0;exitY=1;exitDx=0;exitDy=0;" edge="1" parent="1" source="rXuBKgF0fp0goKvtdP_8-26">
          <mxGeometry width="50" height="50" relative="1" as="geometry">
            <mxPoint x="972.5" y="485" as="sourcePoint" />
            <mxPoint x="312.5" y="497.71000000000004" as="targetPoint" />
          </mxGeometry>
        </mxCell>
        <mxCell id="rXuBKgF0fp0goKvtdP_8-26" value="" style="rounded=0;whiteSpace=wrap;html=1;" vertex="1" parent="1">
          <mxGeometry x="632.5" y="455" width="10" height="30" as="geometry" />
        </mxCell>
        <mxCell id="rXuBKgF0fp0goKvtdP_8-27" value="" style="endArrow=none;dashed=1;html=1;rounded=0;startArrow=none;" edge="1" parent="1" source="rXuBKgF0fp0goKvtdP_8-67">
          <mxGeometry width="50" height="50" relative="1" as="geometry">
            <mxPoint x="977.5" y="1130" as="sourcePoint" />
            <mxPoint x="978" y="500" as="targetPoint" />
          </mxGeometry>
        </mxCell>
        <mxCell id="rXuBKgF0fp0goKvtdP_8-28" value="" style="rounded=0;whiteSpace=wrap;html=1;" vertex="1" parent="1">
          <mxGeometry x="302.5" y="748" width="10" height="157" as="geometry" />
        </mxCell>
        <mxCell id="rXuBKgF0fp0goKvtdP_8-29" value="" style="endArrow=open;html=1;rounded=0;exitX=0;exitY=1;exitDx=0;exitDy=0;dashed=1;endFill=0;" edge="1" parent="1">
          <mxGeometry width="50" height="50" relative="1" as="geometry">
            <mxPoint x="302.5" y="685" as="sourcePoint" />
            <mxPoint x="132.5" y="685" as="targetPoint" />
          </mxGeometry>
        </mxCell>
        <mxCell id="rXuBKgF0fp0goKvtdP_8-30" value="&lt;span style=&quot;color: rgb(0 , 0 , 0) ; font-family: &amp;#34;helvetica&amp;#34; ; font-size: 12px ; font-style: normal ; font-weight: 400 ; letter-spacing: normal ; text-align: center ; text-indent: 0px ; text-transform: none ; word-spacing: 0px ; background-color: rgb(248 , 249 , 250) ; display: inline ; float: none&quot;&gt;addItem(-)&lt;/span&gt;" style="text;whiteSpace=wrap;html=1;" vertex="1" parent="1">
          <mxGeometry x="187.5" y="661" width="50" height="20" as="geometry" />
        </mxCell>
        <mxCell id="rXuBKgF0fp0goKvtdP_8-31" value="" style="endArrow=classic;html=1;rounded=0;" edge="1" parent="1">
          <mxGeometry width="50" height="50" relative="1" as="geometry">
            <mxPoint x="132.5" y="748" as="sourcePoint" />
            <mxPoint x="302.5" y="748" as="targetPoint" />
          </mxGeometry>
        </mxCell>
        <mxCell id="rXuBKgF0fp0goKvtdP_8-32" value="wantToCheckout()" style="text;whiteSpace=wrap;html=1;" vertex="1" parent="1">
          <mxGeometry x="167.5" y="725" width="90" height="20" as="geometry" />
        </mxCell>
        <mxCell id="rXuBKgF0fp0goKvtdP_8-33" value="" style="endArrow=open;html=1;rounded=0;exitX=0;exitY=1;exitDx=0;exitDy=0;dashed=1;endFill=0;" edge="1" parent="1">
          <mxGeometry width="50" height="50" relative="1" as="geometry">
            <mxPoint x="302.5" y="905" as="sourcePoint" />
            <mxPoint x="132.5" y="905" as="targetPoint" />
          </mxGeometry>
        </mxCell>
        <mxCell id="rXuBKgF0fp0goKvtdP_8-34" value="&lt;span style=&quot;text-align: left&quot;&gt;wantToCheckout(-)&lt;/span&gt;" style="text;html=1;align=center;verticalAlign=middle;resizable=0;points=[];autosize=1;strokeColor=none;fillColor=none;" vertex="1" parent="1">
          <mxGeometry x="157.5" y="885" width="120" height="20" as="geometry" />
        </mxCell>
        <mxCell id="rXuBKgF0fp0goKvtdP_8-35" value="" style="endArrow=open;dashed=1;html=1;rounded=0;entryX=0;entryY=0.5;entryDx=0;entryDy=0;exitX=1.193;exitY=0.086;exitDx=0;exitDy=0;exitPerimeter=0;endFill=0;startSize=9;endSize=10;" edge="1" parent="1" source="rXuBKgF0fp0goKvtdP_8-28" target="rXuBKgF0fp0goKvtdP_8-56">
          <mxGeometry width="50" height="50" relative="1" as="geometry">
            <mxPoint x="312.5" y="785" as="sourcePoint" />
            <mxPoint x="332.5" y="780" as="targetPoint" />
          </mxGeometry>
        </mxCell>
        <mxCell id="rXuBKgF0fp0goKvtdP_8-36" value="" style="endArrow=classic;html=1;rounded=0;entryX=0;entryY=0;entryDx=0;entryDy=0;" edge="1" parent="1" target="rXuBKgF0fp0goKvtdP_8-63">
          <mxGeometry width="50" height="50" relative="1" as="geometry">
            <mxPoint x="312.5" y="825" as="sourcePoint" />
            <mxPoint x="632.5" y="835" as="targetPoint" />
          </mxGeometry>
        </mxCell>
        <mxCell id="rXuBKgF0fp0goKvtdP_8-37" value="" style="endArrow=open;html=1;rounded=0;exitX=0;exitY=1;exitDx=0;exitDy=0;dashed=1;endFill=0;entryX=1;entryY=0.222;entryDx=0;entryDy=0;entryPerimeter=0;" edge="1" parent="1" source="rXuBKgF0fp0goKvtdP_8-63">
          <mxGeometry width="50" height="50" relative="1" as="geometry">
            <mxPoint x="632.5" y="865" as="sourcePoint" />
            <mxPoint x="312.5" y="877.71" as="targetPoint" />
          </mxGeometry>
        </mxCell>
        <mxCell id="rXuBKgF0fp0goKvtdP_8-38" value="re-enable the scanner" style="shape=note;whiteSpace=wrap;html=1;backgroundOutline=1;darkOpacity=0.05;size=9;" vertex="1" parent="1">
          <mxGeometry x="670" y="460" width="220" height="30" as="geometry" />
        </mxCell>
        <mxCell id="rXuBKgF0fp0goKvtdP_8-39" value="" style="endArrow=none;dashed=1;html=1;rounded=0;entryX=0;entryY=0.5;entryDx=0;entryDy=0;entryPerimeter=0;" edge="1" parent="1" target="rXuBKgF0fp0goKvtdP_8-38">
          <mxGeometry width="50" height="50" relative="1" as="geometry">
            <mxPoint x="640" y="475" as="sourcePoint" />
            <mxPoint x="482.5" y="619" as="targetPoint" />
          </mxGeometry>
        </mxCell>
        <mxCell id="rXuBKgF0fp0goKvtdP_8-40" value="[else]" style="text;html=1;align=center;verticalAlign=middle;resizable=0;points=[];autosize=1;strokeColor=none;fillColor=none;" vertex="1" parent="1">
          <mxGeometry x="132.5" y="525" width="40" height="20" as="geometry" />
        </mxCell>
        <mxCell id="rXuBKgF0fp0goKvtdP_8-41" value="" style="rounded=0;whiteSpace=wrap;html=1;" vertex="1" parent="1">
          <mxGeometry x="302.5" y="948" width="10" height="157" as="geometry" />
        </mxCell>
        <mxCell id="rXuBKgF0fp0goKvtdP_8-42" value="" style="endArrow=classic;html=1;rounded=0;" edge="1" parent="1">
          <mxGeometry width="50" height="50" relative="1" as="geometry">
            <mxPoint x="132.5" y="948" as="sourcePoint" />
            <mxPoint x="302.5" y="948" as="targetPoint" />
          </mxGeometry>
        </mxCell>
        <mxCell id="rXuBKgF0fp0goKvtdP_8-43" value="addItemAfterCheckout(Item)" style="text;whiteSpace=wrap;html=1;" vertex="1" parent="1">
          <mxGeometry x="140" y="925" width="155" height="20" as="geometry" />
        </mxCell>
        <mxCell id="rXuBKgF0fp0goKvtdP_8-44" value="" style="endArrow=open;html=1;rounded=0;exitX=0;exitY=1;exitDx=0;exitDy=0;dashed=1;endFill=0;" edge="1" parent="1">
          <mxGeometry width="50" height="50" relative="1" as="geometry">
            <mxPoint x="302.5" y="1105" as="sourcePoint" />
            <mxPoint x="132.5" y="1105" as="targetPoint" />
          </mxGeometry>
        </mxCell>
        <mxCell id="rXuBKgF0fp0goKvtdP_8-45" value="&lt;span style=&quot;text-align: left&quot;&gt;addItemAfterCheckout(-)&lt;/span&gt;" style="text;html=1;align=center;verticalAlign=middle;resizable=0;points=[];autosize=1;strokeColor=none;fillColor=none;" vertex="1" parent="1">
          <mxGeometry x="142.5" y="1085" width="150" height="20" as="geometry" />
        </mxCell>
        <mxCell id="rXuBKgF0fp0goKvtdP_8-46" value="turn scanners back on" style="shape=note;whiteSpace=wrap;html=1;backgroundOutline=1;darkOpacity=0.05;size=9;" vertex="1" parent="1">
          <mxGeometry x="332.5" y="955" width="220" height="43.5" as="geometry" />
        </mxCell>
        <mxCell id="rXuBKgF0fp0goKvtdP_8-47" value="" style="endArrow=none;dashed=1;html=1;rounded=0;entryX=0;entryY=0.5;entryDx=0;entryDy=0;entryPerimeter=0;" edge="1" parent="1" target="rXuBKgF0fp0goKvtdP_8-46">
          <mxGeometry width="50" height="50" relative="1" as="geometry">
            <mxPoint x="313.5" y="977" as="sourcePoint" />
            <mxPoint x="482.5" y="1048.5" as="targetPoint" />
          </mxGeometry>
        </mxCell>
        <mxCell id="rXuBKgF0fp0goKvtdP_8-48" value="" style="endArrow=classic;html=1;rounded=0;entryX=0;entryY=0;entryDx=0;entryDy=0;" edge="1" parent="1" target="rXuBKgF0fp0goKvtdP_8-67">
          <mxGeometry width="50" height="50" relative="1" as="geometry">
            <mxPoint x="312.5" y="1028.5" as="sourcePoint" />
            <mxPoint x="632.5" y="1038.5" as="targetPoint" />
          </mxGeometry>
        </mxCell>
        <mxCell id="rXuBKgF0fp0goKvtdP_8-49" value="" style="endArrow=open;html=1;rounded=0;exitX=0;exitY=1;exitDx=0;exitDy=0;dashed=1;endFill=0;entryX=1;entryY=0.222;entryDx=0;entryDy=0;entryPerimeter=0;" edge="1" parent="1" source="rXuBKgF0fp0goKvtdP_8-67">
          <mxGeometry width="50" height="50" relative="1" as="geometry">
            <mxPoint x="632.5" y="1068.5" as="sourcePoint" />
            <mxPoint x="312.5" y="1081.21" as="targetPoint" />
          </mxGeometry>
        </mxCell>
        <mxCell id="rXuBKgF0fp0goKvtdP_8-50" value="pickOwnBags()" style="text;whiteSpace=wrap;html=1;" vertex="1" parent="1">
          <mxGeometry x="172.5" y="200" width="70" height="20" as="geometry" />
        </mxCell>
        <mxCell id="rXuBKgF0fp0goKvtdP_8-51" value="" style="endArrow=classic;html=1;rounded=0;" edge="1" parent="1">
          <mxGeometry width="50" height="50" relative="1" as="geometry">
            <mxPoint x="132.5" y="225" as="sourcePoint" />
            <mxPoint x="302.5" y="225" as="targetPoint" />
          </mxGeometry>
        </mxCell>
        <mxCell id="rXuBKgF0fp0goKvtdP_8-52" value="" style="endArrow=open;html=1;rounded=0;exitX=0;exitY=1;exitDx=0;exitDy=0;dashed=1;endFill=0;" edge="1" parent="1">
          <mxGeometry width="50" height="50" relative="1" as="geometry">
            <mxPoint x="302.5" y="265.9999999999998" as="sourcePoint" />
            <mxPoint x="132.5" y="265.9999999999998" as="targetPoint" />
          </mxGeometry>
        </mxCell>
        <mxCell id="rXuBKgF0fp0goKvtdP_8-53" value="" style="rounded=0;whiteSpace=wrap;html=1;" vertex="1" parent="1">
          <mxGeometry x="302.5" y="226" width="10" height="40" as="geometry" />
        </mxCell>
        <mxCell id="rXuBKgF0fp0goKvtdP_8-54" value="" style="endArrow=none;dashed=1;html=1;rounded=0;entryX=0.5;entryY=1;entryDx=0;entryDy=0;startArrow=none;" edge="1" parent="1" source="rXuBKgF0fp0goKvtdP_8-11" target="rXuBKgF0fp0goKvtdP_8-53">
          <mxGeometry width="50" height="50" relative="1" as="geometry">
            <mxPoint x="307.5" y="330" as="sourcePoint" />
            <mxPoint x="307.5" y="80" as="targetPoint" />
          </mxGeometry>
        </mxCell>
        <mxCell id="rXuBKgF0fp0goKvtdP_8-55" value="&lt;span style=&quot;color: rgb(0 , 0 , 0) ; font-family: &amp;#34;helvetica&amp;#34; ; font-size: 12px ; font-style: normal ; font-weight: 400 ; letter-spacing: normal ; text-align: center ; text-indent: 0px ; text-transform: none ; word-spacing: 0px ; background-color: rgb(248 , 249 , 250) ; display: inline ; float: none&quot;&gt;&lt;span style=&quot;font-family: &amp;#34;helvetica&amp;#34; ; text-align: left&quot;&gt;pickOwnBags(-)&lt;/span&gt;&lt;/span&gt;" style="text;whiteSpace=wrap;html=1;" vertex="1" parent="1">
          <mxGeometry x="172.5" y="236" width="115" height="30" as="geometry" />
        </mxCell>
        <mxCell id="rXuBKgF0fp0goKvtdP_8-56" value="checkout : Checkout" style="rounded=0;whiteSpace=wrap;html=1;" vertex="1" parent="1">
          <mxGeometry x="1230" y="745" width="210" height="40" as="geometry" />
        </mxCell>
        <mxCell id="rXuBKgF0fp0goKvtdP_8-57" value="" style="rounded=0;whiteSpace=wrap;html=1;" vertex="1" parent="1">
          <mxGeometry x="972.5" y="350" width="10" height="30" as="geometry" />
        </mxCell>
        <mxCell id="rXuBKgF0fp0goKvtdP_8-58" value="" style="endArrow=none;dashed=1;html=1;rounded=0;entryX=0.5;entryY=1;entryDx=0;entryDy=0;startArrow=none;" edge="1" parent="1" target="rXuBKgF0fp0goKvtdP_8-57">
          <mxGeometry width="50" height="50" relative="1" as="geometry">
            <mxPoint x="978" y="520" as="sourcePoint" />
            <mxPoint x="977.0000000000005" y="80" as="targetPoint" />
          </mxGeometry>
        </mxCell>
        <mxCell id="rXuBKgF0fp0goKvtdP_8-59" value="start()" style="text;html=1;align=center;verticalAlign=middle;resizable=0;points=[];autosize=1;strokeColor=none;fillColor=none;" vertex="1" parent="1">
          <mxGeometry x="172.5" y="93" width="50" height="20" as="geometry" />
        </mxCell>
        <mxCell id="rXuBKgF0fp0goKvtdP_8-60" value="start(-)" style="text;html=1;align=center;verticalAlign=middle;resizable=0;points=[];autosize=1;strokeColor=none;fillColor=none;" vertex="1" parent="1">
          <mxGeometry x="172.5" y="133" width="50" height="20" as="geometry" />
        </mxCell>
        <mxCell id="rXuBKgF0fp0goKvtdP_8-61" value="throw temper tantrum ig" style="shape=note;whiteSpace=wrap;html=1;backgroundOutline=1;darkOpacity=0.05;size=9;" vertex="1" parent="1">
          <mxGeometry x="370" y="570" width="220" height="30" as="geometry" />
        </mxCell>
        <mxCell id="rXuBKgF0fp0goKvtdP_8-62" value="" style="endArrow=none;dashed=1;html=1;rounded=0;entryX=0;entryY=0.5;entryDx=0;entryDy=0;entryPerimeter=0;" edge="1" parent="1" target="rXuBKgF0fp0goKvtdP_8-61">
          <mxGeometry width="50" height="50" relative="1" as="geometry">
            <mxPoint x="320" y="585" as="sourcePoint" />
            <mxPoint x="680" y="485" as="targetPoint" />
          </mxGeometry>
        </mxCell>
        <mxCell id="rXuBKgF0fp0goKvtdP_8-63" value="" style="rounded=0;whiteSpace=wrap;html=1;" vertex="1" parent="1">
          <mxGeometry x="1330" y="835" width="10" height="30" as="geometry" />
        </mxCell>
        <mxCell id="rXuBKgF0fp0goKvtdP_8-64" value="&amp;lt;&amp;lt;create&amp;gt;&amp;gt;" style="text;html=1;align=center;verticalAlign=middle;resizable=0;points=[];autosize=1;strokeColor=none;fillColor=none;" vertex="1" parent="1">
          <mxGeometry x="390" y="740" width="80" height="20" as="geometry" />
        </mxCell>
        <mxCell id="rXuBKgF0fp0goKvtdP_8-65" value="&amp;lt;&amp;lt;init&amp;gt;&amp;gt;(totalCost...)" style="text;html=1;align=center;verticalAlign=middle;resizable=0;points=[];autosize=1;strokeColor=none;fillColor=none;" vertex="1" parent="1">
          <mxGeometry x="350" y="800" width="120" height="20" as="geometry" />
        </mxCell>
        <mxCell id="rXuBKgF0fp0goKvtdP_8-66" value="&lt;span style=&quot;color: rgb(0 , 0 , 0) ; font-family: &amp;#34;helvetica&amp;#34; ; font-size: 12px ; font-style: normal ; font-weight: 400 ; letter-spacing: normal ; text-align: center ; text-indent: 0px ; text-transform: none ; word-spacing: 0px ; background-color: rgb(248 , 249 , 250) ; display: inline ; float: none&quot;&gt;&amp;lt;&amp;lt;init&amp;gt;&amp;gt;(-)&lt;/span&gt;" style="text;whiteSpace=wrap;html=1;" vertex="1" parent="1">
          <mxGeometry x="350" y="880" width="130" height="30" as="geometry" />
        </mxCell>
        <mxCell id="rXuBKgF0fp0goKvtdP_8-67" value="" style="rounded=0;whiteSpace=wrap;html=1;" vertex="1" parent="1">
          <mxGeometry x="972.5" y="1038.5" width="10" height="30" as="geometry" />
        </mxCell>
        <mxCell id="rXuBKgF0fp0goKvtdP_8-68" value="" style="endArrow=none;dashed=1;html=1;rounded=0;startArrow=none;" edge="1" parent="1" target="rXuBKgF0fp0goKvtdP_8-67">
          <mxGeometry width="50" height="50" relative="1" as="geometry">
            <mxPoint x="977.5" y="1130" as="sourcePoint" />
            <mxPoint x="978" y="500" as="targetPoint" />
          </mxGeometry>
        </mxCell>
        <mxCell id="rXuBKgF0fp0goKvtdP_8-69" value="Turn scanners off" style="shape=note;whiteSpace=wrap;html=1;backgroundOutline=1;darkOpacity=0.05;size=9;" vertex="1" parent="1">
          <mxGeometry x="342" y="681" width="220" height="43.5" as="geometry" />
        </mxCell>
        <mxCell id="rXuBKgF0fp0goKvtdP_8-70" value="" style="endArrow=none;dashed=1;html=1;rounded=0;entryX=0;entryY=0.5;entryDx=0;entryDy=0;entryPerimeter=0;exitX=1;exitY=0;exitDx=0;exitDy=0;" edge="1" parent="1" source="rXuBKgF0fp0goKvtdP_8-28" target="rXuBKgF0fp0goKvtdP_8-69">
          <mxGeometry width="50" height="50" relative="1" as="geometry">
            <mxPoint x="323" y="702.9999999999998" as="sourcePoint" />
            <mxPoint x="492" y="774.5" as="targetPoint" />
          </mxGeometry>
        </mxCell>
        <mxCell id="rXuBKgF0fp0goKvtdP_8-71" value="maybe this is wrong and the scanner should be pinging the checkout station or maybe they aren&#39;t attatched like this at all i&#39;m not sure. maybe we just have a method to enable adding items and it doesn&#39;t show up here at all" style="shape=note;whiteSpace=wrap;html=1;backgroundOutline=1;darkOpacity=0.05;size=9;" vertex="1" parent="1">
          <mxGeometry x="1010" y="200" width="220" height="120" as="geometry" />
        </mxCell>
        <mxCell id="rXuBKgF0fp0goKvtdP_8-72" value="" style="endArrow=none;dashed=1;html=1;rounded=0;entryX=0;entryY=0.5;entryDx=0;entryDy=0;entryPerimeter=0;exitX=0.75;exitY=0;exitDx=0;exitDy=0;" edge="1" parent="1" source="rXuBKgF0fp0goKvtdP_8-57" target="rXuBKgF0fp0goKvtdP_8-71">
          <mxGeometry width="50" height="50" relative="1" as="geometry">
            <mxPoint x="330" y="595" as="sourcePoint" />
            <mxPoint x="380" y="595" as="targetPoint" />
          </mxGeometry>
        </mxCell>
      </root>
    </mxGraphModel>
  </diagram>
</mxfile>
